<?xml version="1.0" encoding="UTF-8"?>
<svg width="141px" height="54px" viewBox="0 0 141 54" version="1.1" xmlns="http://www.w3.org/2000/svg" xmlns:xlink="http://www.w3.org/1999/xlink">
    <!-- Generator: Sketch 51.3 (57544) - http://www.bohemiancoding.com/sketch -->
    <title>logo</title>
    <desc>Created with Sketch.</desc>
    <defs>
        <linearGradient x1="-1.46531891%" y1="97.0007084%" x2="113.952045%" y2="-8.40328954%" id="linearGradient-1">
            <stop stop-color="#2861E5" offset="0%"></stop>
            <stop stop-color="#2880E5" offset="100%"></stop>
        </linearGradient>
    </defs>
    <g id="Page-1" stroke="none" stroke-width="1" fill="none" fill-rule="evenodd">
        <g id="home-page-" transform="translate(-841.000000, -37.000000)" fill-rule="nonzero">
            <g id="logo" transform="translate(841.000000, 37.000000)">
                <g id="Group" transform="translate(92.000000, 6.000000)">
                    <rect id="Rectangle-path" fill="url(#linearGradient-1)" x="0.0287293796" y="0.0532173913" width="48.5629373" height="47.624"></rect>
                    <path d="M45.2782116,31.885913 C45.1576191,31.2149565 44.9831147,30.658087 44.8355663,30.0615652 C44.3751869,28.338087 43.8474175,26.605913 43.2125337,24.9088696 C43.4987634,24.6897391 43.8204616,24.3168696 43.9637538,23.8344348 C44.1113022,23.3474783 44.017311,22.8215652 43.8520284,22.488 C43.7669043,22.304 43.677524,22.1547826 43.5835328,22.0233043 C43.5835328,22.0146087 43.5835328,22.0146087 43.5835328,22.0146087 C43.8874968,21.5057391 44.1648594,20.9269565 44.3883102,20.256 C44.3883102,20.1770435 44.6787961,19.4667826 44.7773982,18.181913 C44.8760002,16.8970435 44.5986376,15.0156522 43.5030196,13.2309565 C42.4297468,11.4375652 40.649944,9.85008696 38.5303542,8.7186087 C37.4751702,8.15721739 36.3171279,7.66191304 35.1275188,7.33286957 C33.9467768,6.96452174 32.7082213,6.7453913 31.4696658,6.57843478 C28.9836878,6.30226087 26.4657882,6.47304348 24.19865,6.94678261 C21.9137776,7.42921739 19.874701,8.22295652 18.2335796,9.09565217 C16.5924581,9.98156522 15.3134687,10.8761739 14.4952134,11.5996522 C14.2852406,11.7707826 14.1018692,11.9241739 13.9362319,12.0643478 C13.7844273,12.2090435 13.6503568,12.3318261 13.5471439,12.4372174 C13.3371711,12.6344348 13.2254457,12.744 13.2254457,12.744 C13.3506491,13.1429565 13.4847195,13.5245217 13.6280117,13.906087 C13.6280117,13.8052174 14.5267802,12.8448696 15.6000531,12.0424348 C16.1455566,11.6344348 16.7222723,11.261913 17.1783956,10.9766957 C17.6479968,10.7092174 17.9835276,10.5161739 18.0636861,10.4768696 C21.408708,8.56486957 25.2676667,7.56486957 29.1177582,7.60452174 C31.0451094,7.62191304 32.9724606,7.90713043 34.8104316,8.47269565 C36.6618805,9.00313043 38.4189835,9.88034783 39.9395125,11.082087 C41.2316252,12.130087 42.3630662,13.4281739 42.9844721,14.9763478 C43.2930469,15.7523478 43.4629404,16.568 43.5076305,17.3968696 C43.5211085,18.2212174 43.4005161,19.0455652 43.1408876,19.821913 C42.9979501,20.229913 42.8234457,20.6243478 42.6177291,21.0017391 C42.5148709,20.9053913 42.4031455,20.8086957 42.2914201,20.7078261 L41.7324386,20.2737391 C41.4238638,20.0413913 41.101811,19.8264348 40.775502,19.6333913 C40.2076534,18.6246957 39.5681587,17.6556522 38.8570179,16.725913 C35.9149166,12.765913 31.3625513,9.86295652 26.398753,9.33217391 C24.941003,9.14365217 23.4385628,9.17878261 21.9939361,9.47686957 C21.636415,9.57321739 21.269672,9.648 20.9206633,9.75304348 L19.8743464,10.125913 C19.1947724,10.402087 18.5059766,10.7662609 18.0140304,11.3756522 C17.7100664,11.744 17.5309512,12.2045217 17.4461818,12.6518261 C17.3568015,13.1078261 17.3390673,13.5596522 17.3390673,14.0024348 C17.3656686,14.8838261 17.3614123,15.7742609 17.4550488,16.6511304 C17.5043499,17.5370435 17.6518983,18.413913 17.7682345,19.2911304 C17.938128,20.1593043 18.0721985,21.0406957 18.3091272,21.8914783 C18.3226052,21.922087 18.3314723,21.9530435 18.3403394,21.9836522 C17.888827,22.4921739 17.5174732,23.0713043 17.2670665,23.7026087 C16.2118825,23.7683478 15.1563438,23.829913 14.105416,23.8869565 C9.41933498,24.149913 4.72403218,24.3561739 0.0287293796,24.4963478 L0.0287293796,25.04 C5.6809688,25.0048696 11.3378191,24.8866087 16.9943147,24.6890435 C16.9450137,24.925913 16.9226686,25.1627826 16.9180577,25.4038261 C16.9045797,26.224 17.1237743,27.0351304 17.5086061,27.7366957 C17.9019503,28.4427826 18.4520647,29.0521739 19.0738252,29.5436522 C20.0577178,30.32 21.2381052,30.8330435 22.4589265,31.0786087 C23.11651,32.1485217 23.8361633,33.1791304 24.6143393,34.170087 C26.0408771,35.9944348 27.6553973,37.6782609 29.4440672,39.1693913 C31.2327371,40.6386087 33.2672028,41.9276522 35.561297,42.4716522 C36.1784466,42.6427826 36.8133304,42.7304348 37.4528251,42.7655652 C38.0923198,42.7961739 38.7360707,42.7304348 39.3666984,42.6076522 L39.4560786,42.5902609 L39.4514678,42.498087 C39.2638401,40.5335652 38.9595215,38.5732174 38.5438322,36.6393043 C38.8566632,36.6789565 39.1609818,36.7008696 39.4738128,36.7269565 C40.1579977,36.7666087 40.8418279,36.7443478 41.5394907,36.626087 C42.2236755,36.5033043 42.9302055,36.306087 43.5920453,35.9067826 C43.9318322,35.7137391 44.2357962,35.4507826 44.5177697,35.1568696 C44.7770435,34.8410435 45.009716,34.4904348 45.1483973,34.1043478 C45.448105,33.3286957 45.3945478,32.5394783 45.2782116,31.885913 Z M39.97037,20.7387826 C40.372936,21.48 40.7439352,22.2386087 41.0794659,23.0104348 C40.1583524,23.8918261 39.0403894,24.5714783 37.8373023,24.9530435 C36.8310646,25.053913 35.8159599,25.0758261 34.8008551,25.0187826 C34.6756518,25.0142609 34.5550593,25.0055652 34.4341122,24.9923478 C34.2149176,24.5495652 33.9822451,24.1151304 33.7407055,23.6810435 C33.7584397,23.5231304 33.7722724,23.3742609 33.7722724,23.2250435 C33.6917592,21.8128696 33.3831844,20.4316522 32.882371,19.1203478 C33.1416448,19.0897391 33.4012732,19.072 33.660547,19.0633043 C35.8294378,19.0107826 38.0830981,19.5721739 39.97037,20.7387826 Z M29.9626148,18.3836522 C29.613606,18.1248696 29.2333851,17.9144348 28.8088287,17.7961739 C28.3392275,17.4935652 27.8249361,17.2566957 27.2929106,17.0768696 C26.9573798,16.9673043 26.5952477,16.8838261 26.2150268,16.8532174 C26.1210356,16.1078261 26.1660805,15.384 26.4253543,14.8010435 C26.6041148,14.3933913 26.8413982,14.125913 27.1989194,13.9022609 C27.4046359,13.7794783 27.6415647,13.696 27.8653701,13.6612174 C27.8696263,13.6612174 27.8696263,13.6612174 27.8696263,13.6612174 C28.6431914,14.4153043 29.3273763,15.2573913 29.9129591,16.152 C29.9711272,16.3053913 30.0246844,16.4633043 30.0832072,16.6166957 C30.2708349,17.1471304 30.4453393,17.6824348 30.5974986,18.2215652 C30.382915,18.274087 30.1725875,18.3266087 29.9626148,18.3836522 Z M29.9980832,22.7909565 C29.8909687,22.7996522 29.7881104,22.8128696 29.6806412,22.8173913 C29.6671633,22.7954783 29.6494291,22.7822609 29.6359511,22.7603478 C29.3185092,22.5015652 29.0141906,22.2253913 28.7325717,21.9269565 C28.7637839,21.8918261 28.7996069,21.8612174 28.83543,21.8393043 C28.9336774,21.7735652 29.0053235,21.7561739 29.121305,21.7648696 C29.2376413,21.778087 29.3986677,21.8393043 29.5462161,21.957913 C29.8015884,22.1725217 29.9580039,22.461913 29.9980832,22.7909565 Z M26.5682918,24.352 C27.0559819,24.6587826 27.5653077,24.9307826 28.0842099,25.1721739 C28.0888208,25.1721739 28.0888208,25.1721739 28.0888208,25.1721739 C28.1022988,25.1895652 28.1111659,25.1986087 28.120033,25.2027826 C28.0888208,25.2114783 28.0529977,25.2201739 28.0214309,25.2292174 C27.9097055,25.2424348 27.8157144,25.2466087 27.6951219,25.2511304 C27.4493261,25.237913 27.1989194,25.2114783 26.961636,25.1283478 C26.5058675,24.9968696 26.0717346,24.7335652 25.6918684,24.3829565 C25.9873199,24.373913 26.2778058,24.3610435 26.5682918,24.352 Z M27.4181139,26.8208696 C28.1289001,26.8824348 28.884731,26.698087 29.4972698,26.3429565 C29.5327381,26.3693913 29.577783,26.4 29.613606,26.426087 L30.7134802,27.2198261 L30.3917821,26.0532174 C30.5035074,26.1147826 30.6106219,26.1714783 30.7180911,26.2285217 L31.800231,26.7766957 L31.827187,26.6713043 L31.827187,27.1930435 C31.8225761,27.8946087 31.7331958,28.5043478 31.4558332,28.8375652 C30.9550198,29.5349565 29.1929512,29.6445217 27.7845022,29.9033043 L27.7621571,29.9033043 C27.051371,29.2236522 26.3895312,28.5043478 25.7858595,27.6932174 C25.54432,27.3686957 25.3254801,27.0267826 25.1509757,26.6713043 C24.976826,26.3513043 24.8200558,26.0267826 24.7037196,25.6845217 C24.8870911,25.8466087 25.0793296,25.9826087 25.2850462,26.1144348 C25.9110629,26.514087 26.6534159,26.7770435 27.4181139,26.8208696 Z M30.355959,30.5836522 C30.7404361,30.496 31.1295241,30.381913 31.5051342,30.1846957 C31.8807442,30.0003478 32.2340092,29.7067826 32.4709379,29.3384348 C32.792636,28.8427826 32.8866272,28.285913 32.9270611,27.7683478 C32.9582733,27.3429565 32.9540171,26.9353043 32.9494062,26.5273043 C33.2895479,26.5756522 33.6382019,26.6062609 33.9822451,26.6326957 C34.1837055,27.0274783 34.3802002,27.4264348 34.5727935,27.829913 C35.5251192,30.1805217 36.2986844,32.5968696 36.8980998,35.0566957 C34.1929273,34.4692174 31.6214704,33.2191304 29.5153586,31.4476522 C29.2826861,31.2546087 29.0546245,31.066087 28.8357847,30.8688696 C29.3319872,30.7853913 29.8328005,30.6932174 30.355959,30.5836522 Z M31.8048419,12.2706087 C34.0095558,13.424 35.9053401,15.0553043 37.4882935,17.0024348 C37.9043375,17.5154783 38.2934255,18.0462609 38.6598137,18.5944348 C38.020319,18.3533913 37.3584793,18.1603478 36.6923833,18.0288696 C35.4268718,17.7481739 34.0762363,17.7436522 32.7749018,17.8664348 C32.6365752,17.8838261 32.5021501,17.8970435 32.3634687,17.9147826 C31.8938675,16.928 31.3082847,15.994087 30.6421887,15.130087 C30.5886315,14.994087 30.5347196,14.858087 30.4765515,14.7266087 C30.2080559,14.0994783 29.8998358,13.3582609 29.197562,12.92 C28.9428991,12.762087 28.6655365,12.669913 28.3793068,12.6306087 C28.3793068,12.6306087 28.3793068,12.6306087 28.3746959,12.6306087 C28.1647231,12.4288696 27.9409177,12.2358261 27.717467,12.0473043 C27.0332821,11.4817391 26.3044071,10.9596522 25.5354529,10.4817391 C27.6951219,10.5735652 29.8508894,11.2577391 31.8048419,12.2706087 Z M25.5042407,11.7488696 C26.0231429,12.082087 26.5239563,12.4549565 26.9932029,12.8584348 C26.9662469,12.8629565 26.9396456,12.8803478 26.9173005,12.8890435 C26.2150268,13.2048696 25.6606562,13.8406957 25.3967715,14.5377391 C25.2449669,14.9325217 25.1598428,15.3446957 25.1240198,15.7568696 C25.0122944,14.4062609 25.1509757,13.037913 25.5042407,11.7488696 Z M24.7664986,23.1944348 C24.7129414,23.1241739 24.6771183,23.0452174 24.6366844,22.9662609 L24.6902416,23.010087 C24.7661439,23.0716522 24.8420462,23.1328696 24.9183032,23.1853913 C24.8693569,23.1944348 24.8200558,23.1989565 24.7664986,23.1944348 Z M24.7171976,20.072 C24.6008613,20.0368696 24.475658,20.0062609 24.3550655,19.9798261 C24.3685435,19.9273043 24.3862777,19.8744348 24.4086227,19.8264348 C24.4490567,19.7123478 24.498003,19.6027826 24.5561712,19.5064348 C24.6235611,19.6817391 24.7037196,19.8573913 24.7842328,20.0281739 C24.7618877,20.0368696 24.7395426,20.0587826 24.7171976,20.072 Z M19.033746,12.3673043 C19.1678164,12.1130435 19.4675241,11.8497391 19.9055585,11.6173913 C20.3347258,11.3763478 20.9025744,11.1965217 21.4168658,10.9989565 C22.4766606,10.669913 23.5903675,10.4991304 24.7214538,10.4726957 L24.7037196,10.5297391 C24.2788085,11.6347826 23.9659775,12.7881739 23.733305,13.9853913 C23.5052434,15.1123478 23.6169687,16.362087 23.9031985,17.568 C23.5903675,17.8309565 23.330739,18.1467826 23.1431113,18.4713043 C22.8838375,18.9053913 22.7093332,19.365913 22.6064749,19.8351304 C21.6942284,19.8966957 20.804327,20.1815652 20.0172839,20.6243478 C19.9101694,20.1332174 19.8296562,19.6375652 19.7445321,19.1551304 C19.686364,18.7516522 19.6505409,18.3481739 19.6012399,17.9537391 L19.5253376,17.3617391 L19.4806474,16.7652174 C19.4490806,16.3662609 19.4001342,15.976 19.3597003,15.5812174 C19.3284881,15.1909565 19.2884089,14.7961739 19.2391078,14.3972174 C19.1227716,13.5683478 19.0018245,12.9193043 18.9840903,12.450087 C18.993312,12.4198261 19.0156571,12.3933913 19.033746,12.3673043 Z M22.8792266,23.1241739 C22.8614925,23.1944348 22.8526254,23.2688696 22.8480145,23.3391304 C22.1996527,23.3874783 21.5512909,23.4267826 20.8983182,23.4664348 C20.6968578,22.9533913 20.5134864,22.4229565 20.3528147,21.8876522 C21.0011765,21.4754783 21.7300515,21.1993043 22.4724044,21.1203478 C22.4766606,21.664 22.5795189,22.2121739 22.7362891,22.7210435 C22.7809793,22.8525217 22.8253147,22.9881739 22.8792266,23.1241739 Z M18.8010735,23.3961739 C18.8234186,23.4664348 18.8457636,23.5363478 18.8684634,23.6024348 C18.8010735,23.6069565 18.7297821,23.6111304 18.6627468,23.6111304 C18.7070823,23.5408696 18.7517724,23.4664348 18.8010735,23.3961739 Z M21.5285911,29.6233043 C20.9025744,29.3732174 20.3166369,29.04 19.8027002,28.6365217 C19.2884089,28.2243478 18.8634978,27.7332174 18.5641448,27.1892174 C18.2690479,26.6410435 18.1080215,26.0403478 18.1214995,25.4483478 C18.1257557,25.1808696 18.1615788,24.9046957 18.2378358,24.6413913 C18.5733665,24.6326957 18.9042864,24.6194783 19.2440734,24.6107826 C19.9059132,26.3474783 20.6972125,28.0313043 21.609459,29.6493913 C21.582503,29.6452174 21.5555471,29.632 21.5285911,29.6233043 Z M24.3774106,30.1495652 C24.0418798,29.584 23.7155708,29.018087 23.3846509,28.4612174 C22.6334308,27.1982609 21.9269009,25.8914783 21.3413181,24.5318261 C21.8421315,24.5186087 22.338334,24.5012174 22.8302803,24.4793043 C22.8348912,24.5714783 22.8526254,24.6591304 22.8614925,24.738087 C23.0583419,25.4834783 23.3534387,26.1238261 23.6754915,26.7203478 C24.0018005,27.2817391 24.3238533,27.8518261 24.7083305,28.3822609 C25.1240198,28.9787826 25.5712759,29.5575652 26.0497442,30.1057391 C25.4861518,30.1537391 24.9271703,30.1756522 24.3774106,30.1495652 Z M32.6099739,39.5954783 C31.612958,38.9245217 30.6691447,38.1572174 29.7703762,37.28 C29.3096421,36.8678261 28.8804748,36.4073043 28.4555637,35.96 C28.0129185,35.525913 27.6280867,35.0347826 27.2170083,34.5697391 C26.4164872,33.525913 25.7145681,32.4208696 25.0481175,31.293913 C25.7188243,31.2806957 26.385275,31.2236522 27.0382477,31.136 C27.1052829,31.2062609 27.1723181,31.272 27.2482204,31.3377391 C28.19629,32.2278261 29.2248727,33.0306087 30.3158797,33.7276522 C31.4161086,34.4118261 32.5787617,34.9993043 33.786105,35.4685217 C34.8905901,35.9071304 36.0443762,36.2226087 37.2070293,36.4375652 C37.5602943,38.0994783 37.8287898,39.7791304 38.0121613,41.4587826 C36.1780919,41.4984348 34.2819529,40.717913 32.6099739,39.5954783 Z M43.96801,33.5085217 C43.8023727,34.0612174 43.4001614,34.5213913 42.850047,34.8330435 C42.3045434,35.1356522 41.6561816,35.3067826 40.989731,35.389913 C40.323635,35.4733913 39.6483172,35.4688696 38.9552653,35.3812174 C38.7179819,35.3638261 38.4814078,35.3373913 38.2444791,35.3067826 C37.8284352,33.5965217 37.3322327,31.9036522 36.7509061,30.2330435 C36.2993937,29.0358261 35.7985804,27.8518261 35.2619439,26.6897391 C35.5389519,26.6984348 35.8117036,26.6942609 36.0848101,26.6897391 C37.9852054,26.6413913 39.8721226,26.2907826 41.6430583,25.6768696 C41.7817397,25.6285217 41.9292881,25.576 42.0903145,25.5189565 C42.5421815,26.738087 42.9312695,27.9791304 43.2799236,29.2375652 C43.4856401,29.970087 43.6778787,30.7154783 43.8612502,31.4476522 C44.0350452,32.1753043 44.1556377,32.890087 43.96801,33.5085217 Z" id="Shape" fill="#F6F6F6"></path>
                </g>
                <g id="Group" transform="translate(0.000000, 34.000000)" fill="#2861E5">
                    <path d="M9.27728708,2.70633333 C8.38033014,1.76066667 7.12955024,1.288 5.5242488,1.288 C4.22631579,1.288 3.26194737,1.523 2.63184211,1.99266667 C2.00173684,2.46266667 1.68633493,3.12233333 1.68633493,3.972 C1.68633493,4.30733333 1.73977512,4.59733333 1.84630622,4.84266667 C1.95283732,5.088 2.09883732,5.29766667 2.28360766,5.471 C2.46872727,5.64466667 2.73662679,5.803 3.08800478,5.94666667 C3.43903349,6.09033333 3.80752632,6.21133333 4.19313397,6.31 C4.57874163,6.40866667 5.07891388,6.518 5.69330144,6.63766667 C6.34541148,6.77533333 6.89238756,6.90566667 7.33457895,7.028 C7.77677033,7.15066667 8.21407177,7.30766667 8.64683254,7.49933333 C9.0795933,7.691 9.42119139,7.90633333 9.67197608,8.14566667 C9.92276077,8.385 10.1249952,8.67966667 10.2786794,9.03 C10.4323636,9.38 10.5092057,9.78266667 10.5092057,10.2373333 C10.5092057,11.3563333 10.0684115,12.2123333 9.18752153,12.8046667 C8.3062823,13.397 7.11662679,13.6933333 5.61785646,13.6933333 C3.4921244,13.6933333 1.68912919,13.044 0.209220096,11.7453333 L0.726507177,10.9913333 C1.30980861,11.578 2.02304306,12.037 2.86655981,12.3693333 C3.70972727,12.7013333 4.63951675,12.8676667 5.65557895,12.8676667 C6.85955502,12.8676667 7.79702871,12.6536667 8.468,12.226 C9.13897129,11.7983333 9.47463158,11.1743333 9.47463158,10.3543333 C9.47463158,10.0133333 9.41490431,9.70966667 9.29579904,9.44333333 C9.17669378,9.177 9.01218182,8.94666667 8.80191388,8.752 C8.59164593,8.55766667 8.30174163,8.381 7.93185167,8.22233333 C7.56196172,8.064 7.16517703,7.926 6.74184689,7.80933333 C6.31851675,7.69266667 5.79633971,7.57133333 5.17566507,7.44566667 C4.54206699,7.314 4.01255502,7.19 3.58608134,7.073 C3.15960766,6.95633333 2.74885167,6.80833333 2.3538134,6.62866667 C1.95877512,6.449 1.64826316,6.24866667 1.42262679,6.02733333 C1.19699043,5.806 1.01815789,5.53366667 0.886478469,5.21033333 C0.754799043,4.887 0.689133971,4.516 0.689133971,4.09733333 C0.689133971,2.94233333 1.12783254,2.04466667 2.00592823,1.40433333 C2.88367464,0.764 4.05656459,0.443666667 5.52389952,0.443666667 C7.24201914,0.443666667 8.66255024,0.952333333 9.78479426,1.96966667 L9.27728708,2.70633333 Z" id="Shape"></path>
                    <path d="M14.6925598,8.82833333 C14.6925598,8.164 14.8179522,7.52833333 15.0687368,6.92066667 C15.3195215,6.31333333 15.6614689,5.785 16.0938804,5.33633333 C16.5266411,4.88733333 17.0470718,4.53 17.6551722,4.26366667 C18.2632727,3.99733333 18.9063014,3.86433333 19.5835598,3.86433333 C20.4801675,3.86433333 21.3062201,4.09033333 22.062067,4.542 C22.8175646,4.994 23.4085502,5.6 23.8350239,6.35966667 C24.2614976,7.11966667 24.4745598,7.94266667 24.4745598,8.82833333 C24.4745598,9.708 24.2628947,10.525 23.8395646,11.279 C23.4162344,12.033 22.8283923,12.636 22.0760383,13.0876667 C21.3236842,13.5396667 20.4923923,13.7653333 19.5835598,13.7653333 C18.6677416,13.7653333 17.8340048,13.5396667 17.0813014,13.0876667 C16.3289474,12.636 15.7425024,12.033 15.3223158,11.279 C14.9024785,10.525 14.6925598,9.708 14.6925598,8.82833333 Z M16.7994306,11.7503333 C17.5643589,12.5433333 18.4861148,12.9396667 19.5646986,12.9396667 C20.6432823,12.9396667 21.5681818,12.5356667 22.3393971,11.728 C23.1106124,10.92 23.4962201,9.94766667 23.4962201,8.81066667 C23.4962201,8.26 23.3910861,7.73066667 23.1811675,7.22166667 C22.9708995,6.713 22.6904258,6.27466667 22.3393971,5.90666667 C21.9880191,5.53866667 21.5727225,5.244 21.0931579,5.02233333 C20.6135933,4.801 20.1102775,4.69033333 19.5835598,4.69033333 C18.5175502,4.69033333 17.595445,5.102 16.8179426,5.92466667 C16.0404402,6.74766667 15.651689,7.72766667 15.651689,8.86466667 C15.651689,9.99533333 16.0341531,10.9573333 16.7994306,11.7503333 Z" id="Shape"></path>
                    <path d="M37.6693971,13.586 L36.7099187,13.586 L36.7099187,8.25366667 C36.7099187,5.89 35.8821196,4.708 34.2265215,4.708 C33.4112967,4.708 32.6400813,4.99233333 31.9125263,5.56066667 C31.1849713,6.12933333 30.6959761,6.83233333 30.4451914,7.67033333 L30.4451914,13.586 L29.4857129,13.586 L29.4857129,0.165666667 L30.4451914,0.165666667 L30.4451914,6.30566667 C30.8465167,5.56366667 31.4141005,4.97133333 32.1475933,4.52833333 C32.8814354,4.08566667 33.6620813,3.864 34.4898804,3.864 C35.5684641,3.864 36.3679713,4.23066667 36.8884019,4.96366667 C37.4088325,5.697 37.6690478,6.73966667 37.6690478,8.092 L37.6690478,13.586 L37.6693971,13.586 Z" id="Shape"></path>
                    <path d="M42.5768134,8.82833333 C42.5768134,8.164 42.7022057,7.52833333 42.9529904,6.92066667 C43.2037751,6.31333333 43.5457225,5.785 43.978134,5.33633333 C44.4108947,4.88733333 44.9313254,4.53 45.5394258,4.26366667 C46.1475263,3.99733333 46.790555,3.86433333 47.4678134,3.86433333 C48.3644211,3.86433333 49.1904737,4.09033333 49.9463206,4.542 C50.7018182,4.994 51.2928038,5.6 51.7192775,6.35966667 C52.1457512,7.11966667 52.3588134,7.94266667 52.3588134,8.82833333 C52.3588134,9.708 52.1471483,10.525 51.7238182,11.279 C51.300488,12.033 50.7126459,12.636 49.9602919,13.0876667 C49.2079378,13.5396667 48.3766459,13.7653333 47.4678134,13.7653333 C46.5519952,13.7653333 45.7182584,13.5396667 44.965555,13.0876667 C44.213201,12.636 43.626756,12.033 43.2065694,11.279 C42.7867321,10.525 42.5768134,9.708 42.5768134,8.82833333 Z M44.6836842,11.7503333 C45.4486124,12.5433333 46.3703684,12.9396667 47.4489522,12.9396667 C48.5275359,12.9396667 49.4524354,12.5356667 50.2236507,11.728 C50.994866,10.92 51.3804737,9.94766667 51.3804737,8.81066667 C51.3804737,8.26 51.2753397,7.73066667 51.0654211,7.22166667 C50.8551531,6.713 50.5746794,6.27466667 50.2236507,5.90666667 C49.8722727,5.53866667 49.4569761,5.244 48.9774115,5.02233333 C48.4978469,4.801 47.9945311,4.69033333 47.4678134,4.69033333 C46.4018038,4.69033333 45.4800478,5.102 44.7021962,5.92466667 C43.9246938,6.74766667 43.5359426,7.72766667 43.5359426,8.86466667 C43.5362919,9.99533333 43.9184067,10.9573333 44.6836842,11.7503333 Z" id="Shape"></path>
                    <path d="M57.4454115,0.166 L58.4237512,0.166 L58.4237512,11.692 C58.4237512,12.464 58.7716364,12.85 59.467756,12.85 C59.8753684,12.85 60.2798373,12.7843333 60.6811627,12.6526667 L60.8694258,13.4066667 C60.3427081,13.598 59.7971292,13.694 59.232689,13.694 C58.6933971,13.694 58.2606364,13.5383333 57.934756,13.2273333 C57.6085263,12.916 57.4454115,12.4973333 57.4454115,11.9706667 L57.4454115,0.166 Z" id="Shape"></path>
                    <path d="M64.2246316,10.8303333 C64.2246316,9.98633333 64.6133828,9.29966667 65.3908852,8.77 C66.1683876,8.24033333 67.1781627,7.97566667 68.419512,7.97566667 C69.5295311,7.97566667 70.5578182,8.13733333 71.5047225,8.46033333 L71.5047225,7.55366667 C71.5047225,6.668 71.2333301,5.96333333 70.691244,5.43966667 C70.1488086,4.916 69.4167129,4.65433333 68.4949569,4.65433333 C67.5040431,4.65433333 66.4317464,5.03433333 65.278067,5.79433333 L64.8735981,5.13 C66.1903923,4.286 67.4320909,3.86433333 68.5983445,3.86433333 C69.7897464,3.86433333 70.73211,4.201 71.4250861,4.87433333 C72.1177129,5.54766667 72.4645502,6.46466667 72.4645502,7.62566667 L72.4645502,12.3743333 C72.4645502,12.6616667 72.6056603,12.8143333 72.8878804,12.832 L72.8878804,13.586 C72.6056603,13.604 72.445689,13.61 72.4083158,13.604 C72.1701053,13.58 71.9818421,13.4873333 71.8438756,13.3256667 C71.7059091,13.164 71.6304641,12.9816667 71.6182392,12.778 L71.6182392,12.024 C71.1603301,12.5686667 70.5679474,12.995 69.8403923,13.3033333 C69.1128373,13.6116667 68.3510526,13.7656667 67.554689,13.7656667 C66.6014976,13.7656667 65.8082775,13.4843333 65.1750287,12.922 C64.5410813,12.3593333 64.2246316,11.662 64.2246316,10.8303333 Z M71.1194641,11.6203333 C71.3765359,11.3213333 71.5050718,11.034 71.5050718,10.7586667 L71.5050718,9.16966667 C70.6081148,8.82866667 69.6112632,8.658 68.5138182,8.658 C67.4981053,8.658 66.6828804,8.851 66.0681435,9.237 C65.4534067,9.623 65.1463876,10.1363333 65.1463876,10.7766667 C65.1463876,11.3993333 65.389488,11.9316667 65.8753397,12.3743333 C66.3611914,12.8173333 66.9836124,13.0386667 67.7426029,13.0386667 C68.4509474,13.0386667 69.1096938,12.9083333 69.7177943,12.6483333 C70.3258947,12.3876667 70.7932344,12.045 71.1194641,11.6203333 Z" id="Shape"></path>
                </g>
                <g id="Group" transform="translate(0.000000, 7.000000)" fill="#2861E5">
                    <path d="M4.12976442,1.1312459 C4.08554327,1.03588525 4.02798558,0.953262295 3.95287981,0.879590164 C3.88198558,0.81004918 3.79810577,0.753590164 3.70053846,0.710213115 C3.60753365,0.670967213 3.51487981,0.653754098 3.40853846,0.653754098 C3.29798558,0.653754098 3.19620673,0.670967213 3.10320192,0.710213115 C3.01019712,0.753590164 2.92631731,0.81004918 2.85121154,0.879590164 C2.77575481,0.953262295 2.71854808,1.03588525 2.67853846,1.1312459 C2.63887981,1.22247541 2.61676923,1.31370492 2.61676923,1.41767213 C2.61676923,1.52611475 2.63887981,1.62595082 2.67853846,1.71270492 C2.71854808,1.80806557 2.77575481,1.89068852 2.85121154,1.96436066 C2.92631731,2.03803279 3.01054808,2.09036066 3.10320192,2.1337377 C3.19620673,2.17263934 3.29342308,2.19019672 3.40853846,2.19019672 C3.51487981,2.19019672 3.60753365,2.17298361 3.70053846,2.1337377 C3.79775481,2.09036066 3.88198558,2.03837705 3.95287981,1.96436066 C4.02798558,1.89068852 4.08554327,1.80806557 4.12976442,1.71270492 C4.16977404,1.62595082 4.18732212,1.52611475 4.18732212,1.41767213 C4.18732212,1.31336066 4.16977404,1.218 4.12976442,1.1312459 Z M7.25367308,1.1312459 C7.21366346,1.03588525 7.15645673,0.953262295 7.081,0.879590164 C7.00589423,0.81004918 6.92166346,0.753590164 6.82865865,0.710213115 C6.73565385,0.670967213 6.6384375,0.653754098 6.53665865,0.653754098 C6.42154327,0.653754098 6.32432692,0.670967213 6.23132212,0.710213115 C6.13410577,0.753590164 6.049875,0.81004918 5.97898077,0.879590164 C5.903875,0.953262295 5.84631731,1.03588525 5.80209615,1.1312459 C5.76208654,1.22247541 5.74453846,1.31370492 5.74453846,1.41767213 C5.74453846,1.52611475 5.76664904,1.62595082 5.80665865,1.71270492 C5.84631731,1.80806557 5.903875,1.89068852 5.97933173,1.96436066 C6.05022596,2.03803279 6.13410577,2.09036066 6.23167308,2.1337377 C6.32467788,2.17263934 6.42189423,2.19019672 6.53700962,2.19019672 C6.63878846,2.19019672 6.73600481,2.17298361 6.82900962,2.1337377 C6.92201442,2.09036066 7.00589423,2.03837705 7.08135096,1.96436066 C7.15645673,1.89068852 7.21401442,1.80806557 7.25402404,1.71270492 C7.29368269,1.62595082 7.31579327,1.52611475 7.31579327,1.41767213 C7.31579327,1.31336066 7.29368269,1.218 7.25367308,1.1312459 Z" id="Shape"></path>
                    <path d="M14.1518221,0.284704918 L14.1518221,14.7988033 L10.2624663,14.7988033 C9.85078846,14.7988033 9.51912981,14.7640328 9.24467788,14.6817541 C8.92600481,14.5905246 8.67401442,14.4300984 8.48800481,14.2087377 C8.31533173,14.000459 8.19600481,13.7357213 8.13844712,13.4276066 C8.08966346,13.1628689 8.06755288,12.8588852 8.06755288,12.4987869 L8.06755288,6.20945902 L4.65585577,6.20945902 C4.08062981,6.20945902 3.50996635,6.28313115 2.9610625,6.43081967 C2.43005769,6.56990164 1.95204808,6.804 1.53615865,7.11659016 C1.12448077,7.42918033 0.792822115,7.8457377 0.540480769,8.35352459 C0.288139423,8.86578689 0.160038462,9.51678689 0.160038462,10.2848361 C0.160038462,10.792623 0.222158654,11.2353443 0.341485577,11.6043934 C0.4608125,11.9689672 0.624711538,12.2856885 0.823706731,12.5462951 C1.02726442,12.8024262 1.25293269,13.0151803 1.50527404,13.1756066 C1.77516346,13.3491148 2.05838942,13.4881967 2.35038942,13.5880328 C2.64695192,13.6923443 2.94351442,13.761541 3.23551442,13.8007869 C3.5450625,13.8400328 3.83285096,13.8617213 4.10274038,13.8617213 C4.49230769,13.8617213 4.89486058,13.8224754 5.30197596,13.7488033 C5.71786538,13.6706557 6.09409615,13.5752951 6.41698077,13.462377 L6.99220673,13.2627049 L7.0673125,13.8531148 C7.12030769,14.2438525 7.23086058,14.5650492 7.39475962,14.8080984 C7.56287019,15.055623 7.76642788,15.2463443 8.00964423,15.3899016 C8.25742308,15.5372459 8.54486058,15.6460328 8.85932212,15.7024918 C9.20431731,15.7675574 9.57177404,15.7978525 9.95677885,15.7978525 L15.2134808,15.7978525 L15.2134808,0.285393443 L14.1518221,0.285393443 L14.1518221,0.284704918 Z M7.02800481,12.2209672 L6.73600481,12.3510984 C6.55455769,12.4292459 6.35977404,12.4984426 6.14744231,12.5552459 C5.94844712,12.6072295 5.74032692,12.655082 5.53255769,12.6939836 C5.32022596,12.7328852 5.09876923,12.7676557 4.87766346,12.7852131 C4.65655769,12.8069016 4.453,12.8199836 4.26699038,12.8199836 C3.74932212,12.8199836 3.30219712,12.7504426 2.92631731,12.6247869 C2.5413125,12.4901803 2.21386538,12.2949836 1.961875,12.0519344 C1.70075962,11.8044098 1.51053846,11.5049016 1.39121154,11.1578852 C1.28065865,10.8366885 1.22310096,10.4851967 1.22310096,10.1116721 C1.22310096,9.63004918 1.30733173,9.20454098 1.46631731,8.84444262 C1.62565385,8.4712623 1.86009615,8.15867213 2.16087019,7.91562295 C2.44830769,7.67704918 2.79365385,7.49906557 3.18287019,7.38614754 C3.54997596,7.2814918 3.96165385,7.2295082 4.39544231,7.2295082 L7.02800481,7.2295082 L7.02800481,12.2209672 Z" id="Shape"></path>
                    <path d="M71.749524,7.67636066 L71.749524,14.7988033 L69.3201683,14.7988033 C67.7587404,14.8070656 67.4109375,13.2709672 67.3446058,12.8805738 C67.278274,12.5332131 67.2473894,12.1428197 67.2473894,11.725918 L67.2473894,8.85270492 L66.1688846,8.84616393 L66.1688846,12.5962131 C66.1688846,13.747082 65.2451538,14.2738033 64.988601,14.4473115 C64.7541587,14.6077377 64.4597019,14.6955246 64.1259375,14.7509508 C63.8055096,14.8043115 63.5629952,14.782623 63.1706202,14.7771148 C61.4677548,14.7526721 60.5226154,13.572541 60.5226154,11.725918 L60.5226154,8.82654098 L59.4286683,8.82068852 L59.4286683,12.5969016 C59.4286683,13.0482295 59.4227019,13.4300164 59.2693317,13.6950984 C58.9790865,14.1970328 58.6039087,14.3044426 58.2852356,14.4734754 C58.0107837,14.6252951 57.670351,14.7165246 57.241125,14.7512951 C56.8694567,14.7860656 56.4093462,14.7991475 55.8604423,14.7991475 L55.5108846,14.7991475 L51.6524135,14.8077541 C51.6436394,14.8077541 51.6390769,14.7991475 51.6436394,14.7946721 C51.9535385,14.538541 52.8649856,13.4186557 53.1745337,11.6653279 C53.2275288,11.3572131 53.2763125,11.0274098 53.2763125,10.6628361 C53.2763125,10.3244262 53.2187548,9.95090164 53.1036394,9.55190164 C52.9930865,9.16563934 52.8028654,8.80106557 52.550524,8.4712623 C52.2985337,8.15006557 51.9619615,7.87672131 51.5460721,7.6594918 C51.1389567,7.4467377 50.6125144,7.34277049 49.9839423,7.34277049 C49.3690577,7.34277049 48.8159423,7.45981967 48.3379327,7.6987377 C47.8599231,7.93731148 47.4485962,8.28467213 47.112375,8.74047541 C46.7673798,9.20936066 46.4974904,9.79942623 46.3114808,10.4941475 C46.1166971,11.206082 46.0194808,12.0305902 46.0194808,12.9463279 L46.0194808,14.7953607 C46.0194808,14.7998361 46.0149183,14.7998361 46.0107067,14.7998361 L30.2051538,14.7998361 C30.103375,14.7998361 30.0282692,14.8084426 29.9707115,14.8215246 C29.9131538,14.8043115 29.8422596,14.7998361 29.7625913,14.7998361 L27.5768029,14.7998361 L27.5768029,13.0072623 C27.5768029,12.1132131 27.5016971,11.2928361 27.3465721,10.5722951 C27.2005721,9.87791803 26.9615673,9.27890164 26.6428942,8.79280328 C26.3287837,8.32391803 25.9304423,7.97242623 25.4261106,7.72077049 C24.9172163,7.46911475 24.2756587,7.34311475 23.5189856,7.34311475 C22.8553173,7.34311475 22.2579808,7.46911475 21.73575,7.72490164 C21.2047452,7.98103279 20.7579712,8.32839344 20.3950769,8.74942623 C20.0276202,9.17906557 19.7401827,9.6782459 19.545399,10.2294098 C19.3506154,10.7850492 19.253399,11.3709836 19.253399,11.97 C19.253399,12.6688525 19.3551779,13.272 19.5587356,13.7539672 C19.7622933,14.2269836 20.0409567,14.6177213 20.3905144,14.9127541 C20.7488462,15.2122623 21.1738606,15.433623 21.6602933,15.5768361 C22.1691875,15.7245246 22.7310769,15.7981967 23.332976,15.7981967 L26.5498894,15.7981967 L26.5411154,16.2929016 C26.5235673,16.9831475 26.4038894,17.5732131 26.1915577,18.037623 C25.9613269,18.5323279 25.5942212,18.9316721 25.0986635,19.2139672 C24.6339904,19.4831803 24.0366538,19.6652951 23.3242019,19.761 C22.6517596,19.8522295 21.8196298,19.8997377 20.850625,19.8997377 L20.6028462,19.8997377 L20.6028462,20.893623 L21.1205144,20.893623 C22.2488558,20.893623 23.2311971,20.8113443 24.0363029,20.6460984 C24.8063125,20.4856721 25.4478702,20.229541 25.9388654,19.8735738 C26.425649,19.5262131 26.7885433,19.0793607 27.0450962,18.5020328 C27.3104231,17.9074918 27.4743221,17.1477049 27.5318798,16.2495246 L27.5627644,15.7981967 L29.7618894,15.7981967 C29.8591058,15.7981967 29.93,15.7895902 29.9875577,15.7809836 C30.0496779,15.7940656 30.1202212,15.7981967 30.2044519,15.7981967 L46.0100048,15.7981967 C46.0145673,15.7981967 46.0187788,15.8026721 46.0187788,15.8068033 L46.0187788,16.8092951 C46.0187788,17.486459 46.1117837,18.0854754 46.2886683,18.5973934 C46.4613413,19.0920984 46.7091202,19.5131311 47.0365673,19.8518852 C47.3594519,20.1861639 47.7665673,20.4422951 48.2400144,20.6202787 C48.7313606,20.8027377 49.302024,20.893623 49.9348077,20.893623 C50.5012596,20.893623 51.0010288,20.8199508 51.4127067,20.6722623 C51.8198221,20.5245738 52.1606058,20.3249016 52.4304952,20.0818525 C52.6916106,19.8432787 53.1562837,19.369918 53.1959423,18.5106393 C53.2931587,16.4664098 52.2490481,15.9062951 51.656274,15.7458689 C51.6517115,15.7458689 51.6517115,15.7413934 51.656274,15.7413934 L55.5101827,15.7978525 L55.8155192,15.7978525 C56.5012981,15.7978525 57.0852981,15.7806393 57.5545337,15.7458689 C57.9883221,15.7155738 58.3599904,15.6546393 58.6474279,15.5634098 C58.9131058,15.4811311 59.129649,15.3637377 59.2935481,15.2160492 C59.4795577,15.055623 59.6564423,14.8383934 59.8245529,14.5650492 L60.2583413,13.8661967 L60.6742308,14.5781311 C60.7493365,14.7082623 60.8556779,14.8514754 60.9883413,14.9991639 C61.1076683,15.1292951 61.2761298,15.2552951 61.483899,15.3723443 C61.6962308,15.4893934 61.9706827,15.5937049 62.2893558,15.6759836 C62.6122404,15.7582623 63.0151442,15.7975082 63.4885913,15.7975082 C63.829375,15.7975082 64.1568221,15.7844262 64.4663702,15.7582623 C64.7495962,15.7365738 65.0194856,15.6845902 65.2627019,15.6019672 C65.4883702,15.5282951 65.6964904,15.415377 65.8867115,15.2676885 C66.0723702,15.1244754 66.2408317,14.9203279 66.3868317,14.6600656 L66.8427308,13.8658525 L67.2586202,14.6817541 C67.3295144,14.8249672 67.4312933,14.9681803 67.5551827,15.1027869 C67.6745096,15.232918 67.8296346,15.3458361 68.0198558,15.4456721 C68.2100769,15.5541148 68.4490817,15.6367377 68.7277452,15.7018033 C69.0109712,15.7668689 69.3426298,15.7971639 69.7188606,15.7971639 L72.8160962,15.7971639 L72.8160962,7.67636066 L71.749524,7.67636066 Z M26.5414663,14.7988033 L23.4751154,14.7988033 C22.4439904,14.7988033 21.6343221,14.525459 21.0636587,13.9870328 C20.4884327,13.4403443 20.1964327,12.6936393 20.1964327,11.7692951 C20.1964327,11.3568689 20.2582019,10.9403115 20.3820913,10.5364918 C20.5059808,10.1240656 20.7007644,9.74640984 20.9527548,9.41247541 C21.2138702,9.06959016 21.5458798,8.78729508 21.9438702,8.57488525 C22.3551971,8.358 22.8377692,8.24508197 23.3817596,8.24508197 C23.943649,8.24508197 24.4392067,8.35352459 24.8550962,8.57488525 C25.2709856,8.7962459 25.6072067,9.11296721 25.8637596,9.51678689 C26.106976,9.89857377 26.2842115,10.3588525 26.3902019,10.8883279 C26.4874183,11.3919836 26.5407644,11.9517541 26.5407644,12.5549016 L26.5407644,14.7988033 L26.5414663,14.7988033 Z M47.0105962,12.7635246 C47.0105962,11.3747705 47.2450385,10.3285574 47.7230481,9.55603279 C48.2361538,8.72704918 49.010726,8.29293443 49.9621827,8.29293443 C50.2808558,8.29293443 50.5861923,8.34491803 50.8736298,8.45783607 C51.1744038,8.5707541 51.4400817,8.7487377 51.66575,8.98731148 C51.8868558,9.21727869 52.0640913,9.50370492 52.1921923,9.83798361 C52.3160817,10.1677869 52.3782019,10.5540492 52.3782019,10.9881639 C52.3782019,11.3527377 52.3160817,11.7565574 52.1921923,12.1817213 C52.0595288,12.6199672 51.8471971,13.0368689 51.5548462,13.4186557 C51.2540721,13.8135246 50.8557308,14.1433279 50.3735096,14.399459 C49.8779519,14.6686721 49.2760529,14.7988033 48.5857115,14.7988033 L47.0105962,14.7988033 L47.0105962,12.7635246 Z M51.8292981,16.5090984 C52.0770769,16.7390656 52.240625,17.0127541 52.3160817,17.3163934 C52.3736394,17.563918 52.404524,17.8110984 52.404524,18.0541475 C52.404524,18.6572951 52.1964038,19.1437377 51.793851,19.4993607 C51.4046346,19.8377705 50.8248462,20.011623 50.0769471,20.011623 C49.5150577,20.011623 49.0324856,19.9248689 48.6432692,19.7513607 C48.2315913,19.5689016 47.8999327,19.3041639 47.6475913,18.9571475 C47.4085865,18.6273443 47.240476,18.2193934 47.1474712,17.7505082 C47.0590288,17.3163934 47.0102452,16.8216885 47.0102452,16.2791311 L47.0102452,15.7975082 L49.2890385,15.7975082 C49.9439327,15.7975082 50.4528269,15.8584426 50.8511683,15.979623 C51.2716202,16.1142295 51.5902933,16.2832623 51.8292981,16.5090984 Z" id="Shape"></path>
                </g>
                <g id="Group" transform="translate(121.000000, 0.000000)" fill="#2861E5">
                    <path d="M0.8792,2.57454545 C0.8323,2.57454545 0.7819,2.57090909 0.7287,2.56363636 C0.6755,2.55636364 0.62195,2.54290909 0.5684,2.52290909 C0.51485,2.50327273 0.46375,2.47672727 0.41475,2.44363636 C0.36575,2.41054545 0.32235,2.368 0.2842,2.316 C0.24605,2.264 0.21595,2.20181818 0.19355,2.12981818 C0.1715,2.05781818 0.1603,1.97381818 0.1603,1.87745455 C0.1603,1.73236364 0.1834,1.60981818 0.22995,1.51018182 C0.27615,1.41054545 0.33775,1.32981818 0.4137,1.26836364 C0.49,1.20690909 0.57645,1.16290909 0.67305,1.13563636 C0.76965,1.10872727 0.86835,1.09527273 0.96845,1.09527273 L1.60125,1.09527273 L1.60125,2.25781818 C1.60125,2.31454545 1.60475,2.36290909 1.61175,2.40254545 C1.61875,2.44218182 1.63205,2.47454545 1.652,2.49963636 C1.6716,2.52472727 1.6996,2.54290909 1.736,2.55418182 C1.77205,2.56545455 1.81965,2.57090909 1.8781,2.57090909 L1.95055,2.57090909 C2.0041,2.57090909 2.0433,2.58363636 2.0685,2.60945455 C2.09405,2.63527273 2.10665,2.67636364 2.10665,2.73309091 C2.10665,2.80036364 2.09475,2.84618182 2.0706,2.87054545 C2.04645,2.89490909 2.0062,2.90727273 1.95055,2.90727273 L1.8284,2.90727273 C1.76085,2.90727273 1.6968,2.90145455 1.6359,2.88945455 C1.575,2.87781818 1.52005,2.856 1.47105,2.82509091 C1.42205,2.79418182 1.38075,2.75236364 1.34715,2.70036364 C1.31355,2.64836364 1.2915,2.58181818 1.28135,2.50145455 C1.2243,2.52254545 1.1599,2.54 1.08885,2.55381818 C1.0178,2.56763636 0.94815,2.57454545 0.8792,2.57454545 Z M0.49245,1.84763636 C0.49245,1.90327273 0.50015,1.95418182 0.5152,2.00109091 C0.5306,2.048 0.55475,2.08836364 0.58765,2.12181818 C0.62055,2.15563636 0.66325,2.18181818 0.7154,2.20109091 C0.76755,2.22036364 0.8309,2.22981818 0.90615,2.22981818 C0.93415,2.22981818 0.9646,2.22836364 0.9975,2.22472727 C1.0304,2.22145455 1.0633,2.21636364 1.0955,2.20981818 C1.1277,2.20327273 1.1592,2.19563636 1.19,2.18690909 C1.22045,2.17818182 1.24845,2.168 1.274,2.15636364 L1.274,1.43527273 L0.92715,1.43527273 C0.86345,1.43527273 0.80535,1.44327273 0.75285,1.45890909 C0.7,1.47490909 0.65415,1.49927273 0.61565,1.53309091 C0.5768,1.56654545 0.5467,1.60981818 0.525,1.66181818 C0.5033,1.71454545 0.49245,1.77636364 0.49245,1.84763636 Z M0.55895,0.354181818 C0.55895,0.325090909 0.56455,0.297818182 0.57505,0.272 C0.5859,0.246181818 0.60095,0.223636364 0.61985,0.203636364 C0.6391,0.184 0.6608,0.168363636 0.68565,0.157090909 C0.7105,0.145818182 0.73745,0.140363636 0.76685,0.140363636 C0.79485,0.140363636 0.8211,0.146181818 0.84595,0.157090909 C0.8708,0.168363636 0.89285,0.184 0.91175,0.203636364 C0.93065,0.223636364 0.9457,0.246181818 0.95655,0.272 C0.9674,0.297818182 0.97265,0.325090909 0.97265,0.354181818 C0.97265,0.384727273 0.9674,0.412727273 0.95655,0.438545455 C0.9457,0.464363636 0.931,0.487272727 0.91175,0.506909091 C0.89285,0.526545455 0.8708,0.542181818 0.84595,0.553454545 C0.8211,0.564727273 0.79485,0.570181818 0.76685,0.570181818 C0.73745,0.570181818 0.7105,0.564727273 0.68565,0.553454545 C0.6608,0.542181818 0.6391,0.526909091 0.61985,0.506909091 C0.60095,0.487272727 0.5859,0.464363636 0.57505,0.438545455 C0.56455,0.412727273 0.55895,0.384727273 0.55895,0.354181818 Z M1.06645,0.354181818 C1.06645,0.325090909 1.0717,0.297818182 1.08255,0.272 C1.0934,0.246181818 1.1081,0.223636364 1.12735,0.203636364 C1.14625,0.184 1.1683,0.168363636 1.19315,0.157090909 C1.218,0.145818182 1.24495,0.140363636 1.27435,0.140363636 C1.30235,0.140363636 1.3286,0.146181818 1.35345,0.157090909 C1.3783,0.168363636 1.40035,0.184 1.41925,0.203636364 C1.43815,0.223636364 1.4532,0.246181818 1.46405,0.272 C1.4749,0.297818182 1.48015,0.325090909 1.48015,0.354181818 C1.48015,0.384727273 1.4749,0.412727273 1.46405,0.438545455 C1.4532,0.464363636 1.4385,0.487272727 1.41925,0.506909091 C1.40035,0.526545455 1.3783,0.542181818 1.35345,0.553454545 C1.3286,0.564727273 1.30235,0.570181818 1.27435,0.570181818 C1.24495,0.570181818 1.218,0.564727273 1.19315,0.553454545 C1.1683,0.542181818 1.14625,0.526909091 1.12735,0.506909091 C1.1081,0.487272727 1.0934,0.464363636 1.08255,0.438545455 C1.0717,0.412727273 1.06645,0.384727273 1.06645,0.354181818 Z" id="Shape"></path>
                    <path d="M1.9509,2.90727273 C1.8977,2.90727273 1.85815,2.89454545 1.8326,2.86872727 C1.80705,2.84290909 1.79445,2.80181818 1.79445,2.74509091 C1.79445,2.67781818 1.8067,2.632 1.83155,2.60763636 C1.8564,2.58327273 1.89595,2.57090909 1.95055,2.57090909 L2.2442,2.57090909 C2.2911,2.57090909 2.3345,2.56836364 2.3737,2.56290909 C2.41325,2.55745455 2.4465,2.54509091 2.4738,2.52509091 C2.5011,2.50545455 2.52245,2.47563636 2.5375,2.436 C2.5529,2.39636364 2.56025,2.34290909 2.56025,2.27563636 L2.56025,1.34654545 L2.8959,1.34654545 L2.8959,2.12509091 C2.8959,2.19236364 2.90115,2.25381818 2.912,2.30909091 C2.92285,2.36472727 2.9414,2.41163636 2.96835,2.44981818 C2.99495,2.488 3.031,2.51781818 3.07615,2.53890909 C3.1213,2.56 3.178,2.57054545 3.2466,2.57054545 C3.2998,2.57054545 3.33935,2.58327273 3.3649,2.60909091 C3.39045,2.63490909 3.40305,2.676 3.40305,2.73272727 C3.40305,2.8 3.3908,2.84581818 3.36595,2.87018182 C3.3411,2.89454545 3.30155,2.90690909 3.24695,2.90690909 C3.20495,2.90690909 3.16295,2.90145455 3.1213,2.89018182 C3.0793,2.87890909 3.04045,2.86327273 3.0051,2.84254545 C2.9694,2.82218182 2.9379,2.79818182 2.9106,2.77018182 C2.8833,2.74254545 2.86195,2.71236364 2.8469,2.67927273 C2.82135,2.728 2.7888,2.76727273 2.7489,2.79709091 C2.70865,2.82690909 2.66595,2.84981818 2.6201,2.86618182 C2.57425,2.88290909 2.527,2.89345455 2.478,2.89890909 C2.429,2.90436364 2.3828,2.90690909 2.33975,2.90690909 L1.9509,2.90690909 L1.9509,2.90727273 Z M2.2596,3.56690909 C2.2596,3.53781818 2.26485,3.51054545 2.2757,3.48472727 C2.28655,3.45890909 2.30125,3.436 2.3205,3.41636364 C2.3394,3.39636364 2.36145,3.38109091 2.3863,3.36981818 C2.41115,3.35854545 2.4381,3.35309091 2.46715,3.35309091 C2.49515,3.35309091 2.5214,3.35854545 2.54625,3.36981818 C2.5711,3.38109091 2.59315,3.39636364 2.61205,3.41636364 C2.6313,3.436 2.646,3.45890909 2.65685,3.48472727 C2.6677,3.51054545 2.67295,3.53781818 2.67295,3.56690909 C2.67295,3.59709091 2.6677,3.62545455 2.65685,3.65090909 C2.646,3.67672727 2.6313,3.69963636 2.61205,3.71927273 C2.59315,3.73890909 2.5711,3.75454545 2.54625,3.76581818 C2.5214,3.77709091 2.49515,3.78254545 2.46715,3.78254545 C2.43775,3.78254545 2.4108,3.77709091 2.3863,3.76581818 C2.36145,3.75454545 2.3394,3.73927273 2.3205,3.71927273 C2.3016,3.69963636 2.28655,3.67672727 2.2757,3.65090909 C2.2652,3.62509091 2.2596,3.59709091 2.2596,3.56690909 Z M2.76675,3.56690909 C2.76675,3.53781818 2.772,3.51054545 2.78285,3.48472727 C2.7937,3.45890909 2.8084,3.436 2.82765,3.41636364 C2.84655,3.39636364 2.8686,3.38109091 2.89345,3.36981818 C2.9183,3.35854545 2.94525,3.35309091 2.97465,3.35309091 C3.00265,3.35309091 3.0289,3.35854545 3.05375,3.36981818 C3.0786,3.38109091 3.1003,3.39636364 3.11955,3.41636364 C3.13845,3.436 3.1535,3.45890909 3.16435,3.48472727 C3.1752,3.51054545 3.18045,3.53781818 3.18045,3.56690909 C3.18045,3.59709091 3.17485,3.62545455 3.16435,3.65090909 C3.1535,3.67672727 3.13845,3.69963636 3.11955,3.71927273 C3.1003,3.73890909 3.0786,3.75454545 3.05375,3.76581818 C3.0289,3.77709091 3.00265,3.78254545 2.97465,3.78254545 C2.94525,3.78254545 2.9183,3.77709091 2.89345,3.76581818 C2.8686,3.75454545 2.84655,3.73927273 2.82765,3.71927273 C2.80875,3.69963636 2.7937,3.67672727 2.78285,3.65090909 C2.772,3.62509091 2.76675,3.59709091 2.76675,3.56690909 Z" id="Shape"></path>
                    <path d="M3.2473,2.90727273 C3.19375,2.90727273 3.15455,2.89454545 3.129,2.86872727 C3.10345,2.84290909 3.09085,2.80181818 3.09085,2.74509091 C3.09085,2.67781818 3.1031,2.632 3.12795,2.60763636 C3.1528,2.58327273 3.19235,2.57090909 3.2473,2.57090909 L3.54095,2.57090909 C3.58785,2.57090909 3.63125,2.56836364 3.67045,2.56290909 C3.71,2.55745455 3.74325,2.54509091 3.77055,2.52509091 C3.79785,2.50545455 3.8192,2.47563636 3.83425,2.436 C3.8493,2.39636364 3.857,2.34290909 3.857,2.27563636 L3.857,1.34654545 L4.19265,1.34654545 L4.19265,2.12509091 C4.19265,2.19236364 4.1979,2.25381818 4.20875,2.30909091 C4.2196,2.36472727 4.23815,2.41163636 4.2651,2.44981818 C4.2917,2.488 4.32775,2.51781818 4.3729,2.53890909 C4.41805,2.56 4.47475,2.57054545 4.54335,2.57054545 C4.59655,2.57054545 4.6361,2.58327273 4.66165,2.60909091 C4.6872,2.63490909 4.6998,2.676 4.6998,2.73272727 C4.6998,2.8 4.68755,2.84581818 4.6627,2.87018182 C4.63785,2.89454545 4.5983,2.90690909 4.5437,2.90690909 C4.5017,2.90690909 4.4597,2.90145455 4.41805,2.89018182 C4.37605,2.87890909 4.3372,2.86327273 4.30185,2.84254545 C4.26615,2.82218182 4.23465,2.79818182 4.20735,2.77018182 C4.18005,2.74254545 4.1587,2.71236364 4.14365,2.67927273 C4.1181,2.728 4.08555,2.76727273 4.04565,2.79709091 C4.0054,2.82690909 3.9627,2.84981818 3.91685,2.86618182 C3.871,2.88290909 3.82375,2.89345455 3.77475,2.89890909 C3.72575,2.90436364 3.67955,2.90690909 3.6365,2.90690909 L3.2473,2.90690909 L3.2473,2.90727273 Z M3.7506,3.55490909 C3.7506,3.52581818 3.75585,3.49854545 3.7667,3.47272727 C3.77755,3.44690909 3.79225,3.42436364 3.8115,3.40436364 C3.8304,3.38472727 3.85245,3.36909091 3.8773,3.35781818 C3.90215,3.34654545 3.9291,3.34109091 3.9585,3.34109091 C3.9865,3.34109091 4.01275,3.34690909 4.0376,3.35781818 C4.06245,3.36909091 4.08415,3.38472727 4.1034,3.40436364 C4.1223,3.42436364 4.13735,3.44690909 4.1482,3.47272727 C4.15905,3.49854545 4.1643,3.52581818 4.1643,3.55490909 C4.1643,3.58545455 4.1587,3.61345455 4.1482,3.63927273 C4.13735,3.66509091 4.1223,3.688 4.1034,3.70763636 C4.08415,3.72727273 4.06245,3.74290909 4.0376,3.75418182 C4.01275,3.76545455 3.9865,3.77090909 3.9585,3.77090909 C3.9291,3.77090909 3.90215,3.76545455 3.8773,3.75418182 C3.85245,3.74290909 3.8304,3.72763636 3.8115,3.70763636 C3.7926,3.688 3.77755,3.66509091 3.7667,3.63927273 C3.75585,3.61345455 3.7506,3.58509091 3.7506,3.55490909 Z" id="Shape"></path>
                    <path d="M4.5437,2.90727273 C4.49015,2.90727273 4.45095,2.89454545 4.4254,2.86872727 C4.39985,2.84290909 4.38725,2.80181818 4.38725,2.74509091 C4.38725,2.67781818 4.3995,2.632 4.42435,2.60763636 C4.4492,2.58327273 4.48875,2.57090909 4.54335,2.57090909 L5.1401,2.57090909 L5.1401,1.34690909 L5.47155,1.34690909 L5.47155,2.90763636 L4.5437,2.90763636 L4.5437,2.90727273 Z M4.69805,3.56690909 C4.69805,3.53781818 4.7033,3.51054545 4.71415,3.48472727 C4.725,3.45890909 4.7397,3.436 4.75895,3.41636364 C4.77785,3.39636364 4.7999,3.38109091 4.82475,3.36981818 C4.8496,3.35854545 4.87655,3.35309091 4.90595,3.35309091 C4.93395,3.35309091 4.9602,3.35854545 4.98505,3.36981818 C5.0099,3.38109091 5.03195,3.39636364 5.05085,3.41636364 C5.06975,3.436 5.0848,3.45890909 5.09565,3.48472727 C5.1065,3.51054545 5.11175,3.53781818 5.11175,3.56690909 C5.11175,3.59709091 5.1065,3.62545455 5.09565,3.65090909 C5.0848,3.67672727 5.0701,3.69963636 5.05085,3.71927273 C5.03195,3.73890909 5.0099,3.75454545 4.98505,3.76581818 C4.9602,3.77709091 4.93395,3.78254545 4.90595,3.78254545 C4.8769,3.78254545 4.8496,3.77709091 4.82475,3.76581818 C4.7999,3.75454545 4.77785,3.73927273 4.75895,3.71927273 C4.7397,3.69963636 4.725,3.67672727 4.71415,3.65090909 C4.7033,3.62509091 4.69805,3.59709091 4.69805,3.56690909 Z M5.20485,3.56690909 C5.20485,3.53781818 5.21045,3.51054545 5.22095,3.48472727 C5.2318,3.45890909 5.24685,3.436 5.26575,3.41636364 C5.285,3.39636364 5.3067,3.38109091 5.33155,3.36981818 C5.3564,3.35854545 5.38335,3.35309091 5.41275,3.35309091 C5.44075,3.35309091 5.467,3.35854545 5.49185,3.36981818 C5.5167,3.38109091 5.53875,3.39636364 5.55765,3.41636364 C5.57655,3.436 5.5916,3.45890909 5.60245,3.48472727 C5.6133,3.51054545 5.61855,3.53781818 5.61855,3.56690909 C5.61855,3.59709091 5.6133,3.62545455 5.60245,3.65090909 C5.5916,3.67672727 5.5769,3.69963636 5.55765,3.71927273 C5.53875,3.73890909 5.5167,3.75454545 5.49185,3.76581818 C5.467,3.77709091 5.44075,3.78254545 5.41275,3.78254545 C5.3837,3.78254545 5.3564,3.77709091 5.33155,3.76581818 C5.3067,3.75454545 5.285,3.73927273 5.26575,3.71927273 C5.24685,3.69963636 5.2318,3.67672727 5.22095,3.65090909 C5.21045,3.62509091 5.20485,3.59709091 5.20485,3.56690909 Z" id="Shape"></path>
                    <path d="M7.01785,2.90727273 C6.9797,2.90727273 6.9426,2.90254545 6.90655,2.89345455 C6.87015,2.88436364 6.8362,2.87163636 6.80435,2.85563636 C6.7725,2.83963636 6.74415,2.82145455 6.71965,2.8 C6.6948,2.77890909 6.6759,2.75563636 6.6633,2.73054545 C6.6633,2.91672727 6.65245,3.07636364 6.63075,3.20909091 C6.60905,3.34181818 6.5709,3.45090909 6.5163,3.536 C6.4617,3.62109091 6.3868,3.68363636 6.2923,3.72327273 C6.19745,3.76290909 6.07705,3.78254545 5.9311,3.78254545 L5.8149,3.78254545 L5.8149,3.44581818 L5.9444,3.44581818 C6.041,3.44581818 6.1159,3.43054545 6.16945,3.40036364 C6.223,3.36981818 6.2615,3.32290909 6.28565,3.25963636 C6.3098,3.19636364 6.32415,3.11527273 6.3287,3.01709091 C6.33325,2.91890909 6.33535,2.80109091 6.33535,2.66363636 L6.33535,1.34654545 L6.6668,1.34654545 L6.6668,2.12509091 C6.6668,2.19236364 6.6731,2.25381818 6.68605,2.30909091 C6.69865,2.36472727 6.7186,2.41163636 6.74625,2.44981818 C6.77355,2.488 6.80925,2.51781818 6.85405,2.53890909 C6.8985,2.56 6.9531,2.57054545 7.01785,2.57054545 C7.07105,2.57054545 7.1106,2.58327273 7.13615,2.60909091 C7.16135,2.63490909 7.1743,2.676 7.1743,2.73272727 C7.1743,2.8 7.16205,2.84581818 7.1372,2.87018182 C7.11235,2.89490909 7.07245,2.90727273 7.01785,2.90727273 Z" id="Shape"></path>
                    <path d="M7.01785,2.90727273 C6.9643,2.90727273 6.9251,2.89454545 6.89955,2.86872727 C6.874,2.84290909 6.8614,2.80181818 6.8614,2.74509091 C6.8614,2.67781818 6.87365,2.632 6.8985,2.60763636 C6.92335,2.58327273 6.9629,2.57090909 7.01785,2.57090909 L8.58305,2.57090909 C8.58305,2.39927273 8.561,2.25345455 8.51725,2.13309091 C8.4735,2.01309091 8.414,1.916 8.3391,1.84181818 C8.26385,1.768 8.176,1.71418182 8.0752,1.68036364 C7.97405,1.64654545 7.8666,1.62981818 7.75215,1.62981818 C7.714,1.62981818 7.6741,1.632 7.6328,1.63563636 C7.5915,1.63963636 7.5509,1.64472727 7.5117,1.65163636 C7.47215,1.65818182 7.4347,1.66581818 7.3983,1.67454545 C7.36225,1.68327273 7.33075,1.69127273 7.3038,1.69927273 L7.3038,1.37454545 C7.35455,1.35745455 7.4228,1.33890909 7.50855,1.31890909 C7.5943,1.29927273 7.6888,1.28909091 7.7917,1.28909091 C7.9863,1.28909091 8.15395,1.32327273 8.295,1.39127273 C8.43605,1.45927273 8.55225,1.55163636 8.64395,1.66872727 C8.7353,1.78545455 8.80355,1.92145455 8.848,2.07672727 C8.89245,2.232 8.9159,2.39672727 8.9187,2.57090909 L9.14165,2.57090909 C9.19485,2.57090909 9.2344,2.58363636 9.25995,2.60945455 C9.2855,2.63527273 9.2981,2.67636364 9.2981,2.73309091 C9.2981,2.80036364 9.28585,2.84618182 9.26205,2.87054545 C9.2379,2.89490909 9.19765,2.90727273 9.142,2.90727273 L7.01785,2.90727273 Z M7.6335,3.55890909 C7.6335,3.52981818 7.6391,3.50254545 7.6496,3.47672727 C7.66045,3.45090909 7.6755,3.428 7.6944,3.40836364 C7.71365,3.38836364 7.73535,3.37309091 7.7602,3.36181818 C7.78505,3.35054545 7.812,3.34509091 7.8414,3.34509091 C7.8694,3.34509091 7.89565,3.35054545 7.9205,3.36181818 C7.94535,3.37309091 7.9674,3.38836364 7.9863,3.40836364 C8.0052,3.428 8.02025,3.45090909 8.0311,3.47672727 C8.04195,3.50254545 8.0472,3.52981818 8.0472,3.55890909 C8.0472,3.58909091 8.04195,3.61745455 8.0311,3.64290909 C8.02025,3.66872727 8.00555,3.69163636 7.9863,3.71127273 C7.9674,3.73090909 7.94535,3.74654545 7.9205,3.75781818 C7.89565,3.76909091 7.8694,3.77454545 7.8414,3.77454545 C7.812,3.77454545 7.78505,3.76909091 7.7602,3.75781818 C7.73535,3.74654545 7.71365,3.73127273 7.6944,3.71127273 C7.6755,3.69163636 7.66045,3.66872727 7.6496,3.64290909 C7.6391,3.61745455 7.6335,3.58909091 7.6335,3.55890909 Z" id="Shape"></path>
                    <path d="M9.1399,2.90727273 C9.0867,2.90727273 9.04715,2.89454545 9.0216,2.86872727 C8.99605,2.84290909 8.98345,2.80181818 8.98345,2.74509091 C8.98345,2.67781818 8.9957,2.632 9.02055,2.60763636 C9.0454,2.58327273 9.08495,2.57090909 9.13955,2.57090909 L9.7363,2.57090909 L9.7363,1.34690909 L10.06775,1.34690909 L10.06775,2.90763636 L9.1399,2.90763636 L9.1399,2.90727273 Z M9.401,0.662909091 C9.401,0.633818182 9.40625,0.606545455 9.4171,0.580727273 C9.42795,0.554909091 9.44265,0.532363636 9.4619,0.512363636 C9.4808,0.492727273 9.50285,0.477090909 9.5277,0.465818182 C9.55255,0.454545455 9.5795,0.449090909 9.6089,0.449090909 C9.6369,0.449090909 9.66315,0.454909091 9.688,0.465818182 C9.71285,0.477090909 9.7349,0.492727273 9.7538,0.512363636 C9.7727,0.532363636 9.78775,0.554909091 9.7986,0.580727273 C9.80945,0.606545455 9.8147,0.633818182 9.8147,0.662909091 C9.8147,0.693454545 9.80945,0.721454545 9.7986,0.747272727 C9.78775,0.773090909 9.77305,0.796 9.7538,0.815636364 C9.7349,0.835272727 9.71285,0.850909091 9.688,0.862181818 C9.66315,0.873454545 9.6369,0.878909091 9.6089,0.878909091 C9.5795,0.878909091 9.55255,0.873454545 9.5277,0.862181818 C9.50285,0.850909091 9.4808,0.835636364 9.4619,0.815636364 C9.44265,0.796 9.42795,0.773090909 9.4171,0.747272727 C9.40625,0.721454545 9.401,0.693454545 9.401,0.662909091 Z M9.90815,0.662909091 C9.90815,0.633818182 9.91375,0.606545455 9.92425,0.580727273 C9.9351,0.554909091 9.95015,0.532363636 9.96905,0.512363636 C9.9883,0.492727273 10.01,0.477090909 10.03485,0.465818182 C10.0597,0.454545455 10.08665,0.449090909 10.11605,0.449090909 C10.14405,0.449090909 10.1703,0.454909091 10.19515,0.465818182 C10.22,0.477090909 10.24205,0.492727273 10.26095,0.512363636 C10.27985,0.532363636 10.2949,0.554909091 10.30575,0.580727273 C10.3166,0.606545455 10.32185,0.633818182 10.32185,0.662909091 C10.32185,0.693454545 10.3166,0.721454545 10.30575,0.747272727 C10.2949,0.773090909 10.2802,0.796 10.26095,0.815636364 C10.24205,0.835272727 10.22,0.850909091 10.19515,0.862181818 C10.1703,0.873454545 10.14405,0.878909091 10.11605,0.878909091 C10.08665,0.878909091 10.0597,0.873454545 10.03485,0.862181818 C10.01,0.850909091 9.9883,0.835636364 9.96905,0.815636364 C9.95015,0.796 9.9351,0.773090909 9.92425,0.747272727 C9.9134,0.721454545 9.90815,0.693454545 9.90815,0.662909091 Z" id="Shape"></path>
                    <path d="M12.19575,2.57454545 C12.14885,2.57454545 12.09845,2.57090909 12.04525,2.56363636 C11.9917,2.55636364 11.9385,2.54290909 11.88495,2.52290909 C11.83175,2.50327273 11.7803,2.47672727 11.7313,2.44363636 C11.6823,2.41054545 11.6389,2.368 11.60075,2.316 C11.5626,2.264 11.5325,2.20181818 11.5101,2.12981818 C11.48805,2.05781818 11.47685,1.97381818 11.47685,1.87745455 C11.47685,1.73236364 11.49995,1.60981818 11.5465,1.51018182 C11.5927,1.41054545 11.6543,1.32981818 11.73025,1.26836364 C11.80655,1.20690909 11.893,1.16290909 11.9896,1.13563636 C12.0862,1.10872727 12.1849,1.09527273 12.285,1.09527273 L12.9178,1.09527273 L12.9178,2.25781818 C12.9178,2.31454545 12.9213,2.36290909 12.9283,2.40254545 C12.9353,2.44218182 12.9486,2.47454545 12.96855,2.49963636 C12.98815,2.52472727 13.01615,2.54290909 13.05255,2.55418182 C13.0886,2.56545455 13.1362,2.57090909 13.19465,2.57090909 L13.2671,2.57090909 C13.3203,2.57090909 13.35985,2.58363636 13.38505,2.60945455 C13.4106,2.63527273 13.4232,2.67636364 13.4232,2.73309091 C13.4232,2.80036364 13.4113,2.84618182 13.38715,2.87054545 C13.363,2.89490909 13.32275,2.90727273 13.2671,2.90727273 L13.14495,2.90727273 C13.0774,2.90727273 13.01335,2.90145455 12.95245,2.88945455 C12.89155,2.87781818 12.8366,2.856 12.7876,2.82509091 C12.7386,2.79418182 12.6973,2.75236364 12.6637,2.70036364 C12.6301,2.64836364 12.60805,2.58181818 12.5979,2.50145455 C12.54085,2.52254545 12.47645,2.54 12.4054,2.55381818 C12.33435,2.56763636 12.26435,2.57454545 12.19575,2.57454545 Z M11.80865,1.84763636 C11.80865,1.90327273 11.81635,1.95418182 11.8314,2.00109091 C11.8468,2.048 11.87095,2.08836364 11.90385,2.12181818 C11.93675,2.15563636 11.97945,2.18181818 12.0316,2.20109091 C12.08375,2.22036364 12.1471,2.22981818 12.22235,2.22981818 C12.25035,2.22981818 12.2808,2.22836364 12.3137,2.22472727 C12.3466,2.22145455 12.3795,2.21636364 12.4117,2.20981818 C12.4439,2.20327273 12.4754,2.19563636 12.5062,2.18690909 C12.53665,2.17818182 12.56465,2.168 12.5902,2.15636364 L12.5902,1.43527273 L12.24335,1.43527273 C12.17965,1.43527273 12.12155,1.44327273 12.06905,1.45890909 C12.0162,1.47490909 11.97035,1.49927273 11.93185,1.53309091 C11.893,1.56654545 11.8629,1.60981818 11.8412,1.66181818 C11.8195,1.71454545 11.80865,1.77636364 11.80865,1.84763636 Z M11.8755,0.354181818 C11.8755,0.325090909 11.8811,0.297818182 11.8916,0.272 C11.90245,0.246181818 11.9175,0.223636364 11.9364,0.203636364 C11.95565,0.184 11.97735,0.168363636 12.0022,0.157090909 C12.02705,0.145818182 12.054,0.140363636 12.0834,0.140363636 C12.1114,0.140363636 12.13765,0.146181818 12.1625,0.157090909 C12.18735,0.168363636 12.2094,0.184 12.2283,0.203636364 C12.2472,0.223636364 12.26225,0.246181818 12.2731,0.272 C12.28395,0.297818182 12.2892,0.325090909 12.2892,0.354181818 C12.2892,0.384727273 12.28395,0.412727273 12.2731,0.438545455 C12.26225,0.464363636 12.24755,0.487272727 12.2283,0.506909091 C12.2094,0.526545455 12.18735,0.542181818 12.1625,0.553454545 C12.13765,0.564727273 12.1114,0.570181818 12.0834,0.570181818 C12.05435,0.570181818 12.02705,0.564727273 12.0022,0.553454545 C11.97735,0.542181818 11.95565,0.526909091 11.9364,0.506909091 C11.9175,0.487272727 11.90245,0.464363636 11.8916,0.438545455 C11.88075,0.412727273 11.8755,0.384727273 11.8755,0.354181818 Z M12.38265,0.354181818 C12.38265,0.325090909 12.3879,0.297818182 12.39875,0.272 C12.4096,0.246181818 12.4243,0.223636364 12.44355,0.203636364 C12.46245,0.184 12.4845,0.168363636 12.50935,0.157090909 C12.5342,0.145818182 12.56115,0.140363636 12.59055,0.140363636 C12.61855,0.140363636 12.6448,0.146181818 12.66965,0.157090909 C12.6945,0.168363636 12.71655,0.184 12.73545,0.203636364 C12.75435,0.223636364 12.7694,0.246181818 12.78025,0.272 C12.7911,0.297818182 12.79635,0.325090909 12.79635,0.354181818 C12.79635,0.384727273 12.7911,0.412727273 12.78025,0.438545455 C12.7694,0.464363636 12.7547,0.487272727 12.73545,0.506909091 C12.71655,0.526545455 12.6945,0.542181818 12.66965,0.553454545 C12.6448,0.564727273 12.61855,0.570181818 12.59055,0.570181818 C12.5615,0.570181818 12.5342,0.564727273 12.50935,0.553454545 C12.4845,0.542181818 12.46245,0.526909091 12.44355,0.506909091 C12.4243,0.487272727 12.4096,0.464363636 12.39875,0.438545455 C12.3879,0.412727273 12.38265,0.384727273 12.38265,0.354181818 Z" id="Shape"></path>
                    <path d="M13.2671,2.90727273 C13.21355,2.90727273 13.17435,2.89454545 13.1488,2.86872727 C13.12325,2.84290909 13.11065,2.80181818 13.11065,2.74509091 C13.11065,2.67781818 13.1229,2.632 13.14775,2.60763636 C13.1726,2.58327273 13.21215,2.57090909 13.26675,2.57090909 L14.83195,2.57090909 C14.83195,2.39927273 14.8099,2.25345455 14.76615,2.13309091 C14.7224,2.01309091 14.6629,1.916 14.588,1.84181818 C14.51275,1.768 14.4249,1.71418182 14.3241,1.68036364 C14.22295,1.64654545 14.1155,1.62981818 14.00105,1.62981818 C13.9629,1.62981818 13.923,1.632 13.8817,1.63563636 C13.8404,1.63963636 13.80015,1.64472727 13.7606,1.65163636 C13.72105,1.65818182 13.6836,1.66581818 13.6472,1.67454545 C13.61115,1.68327273 13.57965,1.69127273 13.5527,1.69927273 L13.5527,1.37454545 C13.60345,1.35745455 13.67205,1.33890909 13.75745,1.31890909 C13.8432,1.29927273 13.9377,1.28909091 14.0406,1.28909091 C14.2352,1.28909091 14.40285,1.32327273 14.5439,1.39127273 C14.68495,1.45927273 14.80115,1.55163636 14.89285,1.66872727 C14.9842,1.78545455 15.05245,1.92145455 15.0969,2.07672727 C15.14135,2.232 15.1648,2.39672727 15.1676,2.57090909 L15.39055,2.57090909 C15.4441,2.57090909 15.4833,2.58363636 15.50885,2.60945455 C15.5344,2.63527273 15.547,2.67636364 15.547,2.73309091 C15.547,2.80036364 15.53475,2.84618182 15.51095,2.87054545 C15.4868,2.89490909 15.44655,2.90727273 15.3909,2.90727273 L13.2671,2.90727273 Z M13.86385,0.669090909 C13.86385,0.64 13.8691,0.612727273 13.87995,0.586909091 C13.8908,0.561090909 13.9055,0.538181818 13.92475,0.518545455 C13.94365,0.498909091 13.9657,0.483272727 13.99055,0.472 C14.0154,0.460727273 14.04235,0.455272727 14.07175,0.455272727 C14.09975,0.455272727 14.126,0.460727273 14.15085,0.472 C14.1757,0.483272727 14.19775,0.498545455 14.21665,0.518545455 C14.23555,0.538181818 14.2506,0.561090909 14.26145,0.586909091 C14.2723,0.612727273 14.27755,0.64 14.27755,0.669090909 C14.27755,0.699636364 14.2723,0.727636364 14.26145,0.753454545 C14.2506,0.779272727 14.2359,0.802181818 14.21665,0.821818182 C14.19775,0.841818182 14.1757,0.857090909 14.15085,0.868363636 C14.126,0.879636364 14.09975,0.885090909 14.07175,0.885090909 C14.04235,0.885090909 14.0154,0.879636364 13.99055,0.868363636 C13.9657,0.857090909 13.94365,0.841818182 13.92475,0.821818182 C13.9055,0.802181818 13.8908,0.779272727 13.87995,0.753454545 C13.86945,0.727636364 13.86385,0.699272727 13.86385,0.669090909 Z" id="Shape"></path>
                    <path d="M16.7195,2.90727273 C16.6306,2.90727273 16.55465,2.90072727 16.49165,2.88763636 C16.42865,2.87454545 16.37545,2.85636364 16.3324,2.83309091 C16.28935,2.80981818 16.254,2.78327273 16.2267,2.75272727 C16.1994,2.72218182 16.1763,2.69018182 16.15705,2.65563636 C16.1252,2.71127273 16.0916,2.75563636 16.0559,2.78945455 C16.0202,2.82290909 15.97575,2.84872727 15.92255,2.86545455 C15.869,2.88254545 15.80355,2.89381818 15.7262,2.89927273 C15.6485,2.90472727 15.5526,2.90727273 15.43815,2.90727273 L15.38845,2.90727273 C15.33525,2.90727273 15.2957,2.89454545 15.27015,2.86872727 C15.2446,2.84290909 15.232,2.80181818 15.232,2.74509091 C15.232,2.67781818 15.24425,2.632 15.2691,2.60763636 C15.29395,2.58327273 15.3335,2.57090909 15.3881,2.57090909 L15.44515,2.57090909 C15.5316,2.57090909 15.6037,2.56836364 15.66145,2.56290909 C15.7192,2.55745455 15.7654,2.54509091 15.7997,2.52509091 C15.834,2.50545455 15.85815,2.47563636 15.87215,2.436 C15.88615,2.39636364 15.89315,2.34290909 15.89315,2.27563636 L15.89315,1.54472727 L16.2246,1.54472727 L16.2246,2.12509091 C16.2246,2.19236364 16.2288,2.25381818 16.23685,2.30909091 C16.24525,2.36472727 16.2631,2.41163636 16.2911,2.44981818 C16.3191,2.488 16.35935,2.51781818 16.4122,2.53890909 C16.46505,2.56 16.53645,2.57054545 16.62675,2.57054545 C16.68275,2.57054545 16.7314,2.568 16.7727,2.56254545 C16.814,2.55709091 16.84865,2.54472727 16.87665,2.52472727 C16.90465,2.50509091 16.9253,2.47527273 16.9386,2.43563636 C16.9519,2.396 16.95855,2.34254545 16.95855,2.27527273 L16.95855,1.54836364 L17.29035,1.54836364 L17.29035,2.12472727 C17.29035,2.192 17.29525,2.25345455 17.3047,2.30872727 C17.31415,2.36436364 17.3313,2.41127273 17.35615,2.44945455 C17.381,2.48763636 17.4153,2.51745455 17.45905,2.53854545 C17.5028,2.55963636 17.55915,2.57018182 17.62775,2.57018182 C17.67465,2.57018182 17.71805,2.56763636 17.75725,2.56218182 C17.7968,2.55672727 17.83005,2.54436364 17.85735,2.52436364 C17.88465,2.50472727 17.906,2.47490909 17.9214,2.43527273 C17.9368,2.39563636 17.94415,2.34218182 17.94415,2.27490909 L17.94415,1.34581818 L18.2798,1.34581818 L18.2798,2.12436364 C18.2798,2.19163636 18.28505,2.25309091 18.2959,2.30836364 C18.30675,2.364 18.3253,2.41090909 18.3512,2.44909091 C18.3771,2.48727273 18.4128,2.51709091 18.45795,2.53818182 C18.5031,2.55927273 18.5598,2.56981818 18.6284,2.56981818 C18.6816,2.56981818 18.72115,2.58254545 18.7467,2.60836364 C18.77225,2.63418182 18.78485,2.67527273 18.78485,2.732 C18.78485,2.79927273 18.7726,2.84509091 18.74775,2.86945455 C18.7229,2.89381818 18.68335,2.90618182 18.62875,2.90618182 C18.58675,2.90618182 18.5451,2.90072727 18.5038,2.88945455 C18.4625,2.87818182 18.424,2.86254545 18.3883,2.84181818 C18.3526,2.82145455 18.3211,2.79745455 18.2938,2.76945455 C18.2665,2.74181818 18.24515,2.71163636 18.22975,2.67854545 C18.2042,2.72727273 18.17165,2.76654545 18.13175,2.79636364 C18.09185,2.82618182 18.0488,2.84909091 18.00295,2.86545455 C17.9571,2.88218182 17.90985,2.89272727 17.86085,2.89818182 C17.81185,2.90363636 17.76565,2.90618182 17.7226,2.90618182 C17.64735,2.90618182 17.58225,2.9 17.52625,2.88727273 C17.47025,2.87454545 17.4223,2.85781818 17.3824,2.83672727 C17.34215,2.81563636 17.30925,2.79054545 17.28335,2.76145455 C17.2571,2.73236364 17.23645,2.70145455 17.2214,2.66836364 C17.1934,2.72109091 17.1605,2.76327273 17.12235,2.79527273 C17.0842,2.82690909 17.04325,2.85090909 16.9995,2.86763636 C16.95575,2.884 16.90955,2.89454545 16.86125,2.89927273 C16.81435,2.90472727 16.76675,2.90727273 16.7195,2.90727273 Z" id="Shape"></path>
                    <path d="M18.6298,2.90727273 C18.57625,2.90727273 18.53705,2.89454545 18.5115,2.86872727 C18.48595,2.84290909 18.47335,2.80181818 18.47335,2.74509091 C18.47335,2.67781818 18.4856,2.632 18.51045,2.60763636 C18.5353,2.58327273 18.57485,2.57090909 18.6298,2.57090909 L19.22655,2.57090909 L19.22655,1.34690909 L19.558,1.34690909 L19.558,2.90763636 L18.6298,2.90763636 L18.6298,2.90727273 Z M19.1828,0.662909091 C19.1828,0.633818182 19.18805,0.606545455 19.1989,0.580727273 C19.20975,0.554909091 19.22445,0.532363636 19.2437,0.512363636 C19.2626,0.492727273 19.28465,0.477090909 19.3095,0.465818182 C19.33435,0.454545455 19.3613,0.449090909 19.39035,0.449090909 C19.41835,0.449090909 19.4446,0.454909091 19.46945,0.465818182 C19.4943,0.477090909 19.51635,0.492727273 19.53525,0.512363636 C19.5545,0.532363636 19.5692,0.554909091 19.58005,0.580727273 C19.5909,0.606545455 19.59615,0.633818182 19.59615,0.662909091 C19.59615,0.693454545 19.5909,0.721454545 19.58005,0.747272727 C19.5692,0.773090909 19.5545,0.796 19.53525,0.815636364 C19.51635,0.835272727 19.4943,0.850909091 19.46945,0.862181818 C19.4446,0.873454545 19.41835,0.878909091 19.39035,0.878909091 C19.36095,0.878909091 19.334,0.873454545 19.3095,0.862181818 C19.28465,0.850909091 19.2626,0.835636364 19.2437,0.815636364 C19.2248,0.796 19.20975,0.773090909 19.1989,0.747272727 C19.18805,0.721454545 19.1828,0.693454545 19.1828,0.662909091 Z" id="Shape"></path>
                </g>
            </g>
        </g>
    </g>
</svg>